<svg xmlns="http://www.w3.org/2000/svg" xmlns:xlink="http://www.w3.org/1999/xlink" fill="none" version="1.1" width="14" height="14" viewBox="0 0 14 14"><defs><clipPath id="master_svg0_836_31161"><rect x="0" y="0" width="14" height="14" rx="0"/></clipPath></defs><g clip-path="url(#master_svg0_836_31161)"><path d="M2.9163818359375,3.7913742065429688C2.91638210296631,2.341626806542969,4.0916346359375,1.1663742065429688,5.5413823359375005,1.1663742065429688C6.9911298359375,1.1663742065429688,8.166382335937499,2.341626806542969,8.1663818359375,3.7913742065429688C8.166382335937499,5.241121806542969,6.9911298359375,6.416374206542969,5.5413823359375005,6.416374206542969C4.0916346359375,6.416374206542969,2.91638210296631,5.241121806542969,2.9163818359375,3.7913742065429688ZM5.5413818359375,2.3336241065429686C4.7220670359375,2.3135575065429688,4.0470432359375,2.9722516065429687,4.0470432359375,3.7918122065429687C4.0470434359375,4.611372706542969,4.7220674359375,5.270066706542969,5.5413818359375,5.249999506542968C6.332804435937501,5.230611806542969,6.9642853359375,4.583472006542969,6.9642853359375,3.7918122065429687C6.9642853359375,3.0001519065429685,6.332804435937501,2.3530117065429685,5.5413818359375,2.3336241065429686ZM10.5000071359375,7.874999506542968C10.8220071359375,7.874999506542968,11.0836315359375,8.13662430654297,11.0836315359375,8.458624406542969L11.0836315359375,9.62499900654297L12.2500066359375,9.62499900654297C12.5633144359375,9.637128806542968,12.8110532359375,9.89464380654297,12.8110532359375,10.208188106542968C12.8110532359375,10.521728506542969,12.5633144359375,10.779244406542968,12.2500066359375,10.791374206542969L11.0836315359375,10.791374206542969L11.0836315359375,11.958626206542968C11.0836305359375,12.280952206542969,10.8223333359375,12.54224920654297,10.5000057359375,12.54224920654297C10.177678535937499,12.54224920654297,9.9163804359375,12.280952206542969,9.916381335937501,11.958626206542968L9.916381335937501,10.791374206542969L8.7500071359375,10.791374206542969C8.4366989359375,10.779244406542968,8.1889600359375,10.521728506542969,8.1889600359375,10.208188106542968C8.1889600359375,9.89464380654297,8.4366994359375,9.637128806542968,8.7500071359375,9.62499900654297L9.916382335937499,9.62499900654297L9.916382335937499,8.458624406542969C9.916382335937499,8.13662430654297,10.178007635937501,7.874999506542968,10.5000071359375,7.874999506542968Z" fill="#1F1F1F" fill-opacity="1"/><path d="M5.2675070359375,7.582748642007031L7.8750071359375,7.582748642007031C8.1973343359375,7.582748108007031,8.4586320359375,7.8440459372070315,8.4586320359375,8.166373197207031C8.4586320359375,8.488700507207032,8.1973343359375,8.749998287207031,7.8750071359375,8.749998787207032L5.2666320359375,8.749998787207032C4.6576323359375,8.748248687207031,4.120382035937499,8.746498687207032,3.6426317359375,8.861998787207032C3.1517568359375,8.980124187207032,2.7763819359374997,9.211999287207032,2.5243817359375003,9.70549848720703C2.4456318359375,9.859498287207032,2.3922567359375,10.061623087207032,2.3633818359375,10.414248487207031C2.3371318359375,10.73099808720703,2.3336318359375,11.12649868720703,2.3336318359375,11.666373287207032L7.8750071359375,11.666373287207032C8.1973343359375,11.666373287207032,8.4586320359375,11.927670487207031,8.4586320359375,12.24999758720703C8.4586320359375,12.572325187207031,8.1973343359375,12.83362338720703,7.8750071359375,12.83362338720703L1.7500067959374999,12.83362338720703C1.4276795359375,12.83362338720703,1.1663818359375,12.572326187207032,1.1663818359375,12.249999087207032L1.1663818359375,11.87549828720703C1.1663818359375,11.242872987207031,1.1663818359375,10.732748787207031,1.2005067839375,10.319747887207031C1.2355067809375,9.894498087207031,1.3081318159375,9.521748387207031,1.4848817859375,9.176123387207031C1.9250068059375,8.312498867207031,2.6250068359375,7.907373967207032,3.3687567359375,7.726248857207032C3.9926319359375,7.576624069407031,4.6812570359375005,7.579248962307031,5.2666320359375,7.581873855607031L5.2675070359375,7.582748642007031Z" fill="#1F1F1F" fill-opacity="1"/></g></svg>