<svg xmlns="http://www.w3.org/2000/svg" xmlns:xlink="http://www.w3.org/1999/xlink" fill="none" version="1.1" width="12" height="12" viewBox="0 0 12 12"><defs><clipPath id="master_svg0_622_19128"><rect x="0" y="0" width="12" height="12" rx="0"/></clipPath></defs><g clip-path="url(#master_svg0_622_19128)"><path d="M7.0906324,6.512521295367431L4.3640571,6.512521295367431C4.0628877,6.512521295367431,3.8187418,6.756667595367432,3.8187418,7.0578364953674315C3.8187418,7.3590058953674315,4.0628877,7.603151795367432,4.3640571,7.603151795367432L7.0906324,7.603151795367432Q7.6449909,7.603151795367432,8.1521063,7.388659995367432Q8.6415081,7.1816601953674315,9.0186119,6.804555895367431Q9.3957176,6.427452095367432,9.6027174,5.938049295367431Q9.8172083,5.430932795367432,9.8172083,4.876575995367432Q9.8172083,4.322218395367432,9.6027174,3.8151020953674317Q9.3957176,3.3257005953674317,9.0186119,2.9485956453674316Q8.6415091,2.5714917453674317,8.1521063,2.3644917153674316Q7.6449909,2.1500000953674316,7.0906324,2.1500000953674316L2.7281115,2.1500000953674316Q1.924192,2.1500000953674316,1.2488798,2.5860642453674316Q0.57354033,3.0221461053674314,0.24285963,3.7548214953674317Q-0.087864786,4.487486095367432,0.031788826,5.282412795367431Q0.15138108,6.076931195367432,0.6832099,6.680205795367431C0.77888042,6.788667695367431,0.91371888,6.854682895367431,1.0580623,6.863727595367432C1.0694164,6.864438995367432,1.0807898,6.864794695367432,1.0921662,6.864794695367432C1.0983343,6.864794695367432,1.1045022,6.864690295367431,1.1106676,6.864480495367432C1.2370671,6.8601903953674315,1.358045,6.812097995367432,1.4528922,6.728435995367431C1.570251,6.624918495367432,1.6374813,6.475969795367432,1.6374813,6.319479495367432C1.6374813,6.312048395367432,1.6373295,6.304617895367431,1.6370257,6.297193495367432C1.6319101,6.172125795367432,1.5839239,6.052625895367432,1.5011227,5.9587535953674315Q1.1820623,5.597033995367432,1.1102701,5.120078095367432Q1.0384779,4.6431221953674315,1.2369324,4.203479295367432Q1.435321,3.7639179953674313,1.8405029,3.5022829953674317Q2.245712,3.2406303953674316,2.7281115,3.2406303953674316L7.0906324,3.2406303953674316Q7.7682638,3.2406303953674316,8.2474213,3.7197876953674314Q8.7265778,4.198945095367431,8.7265778,4.876575995367432Q8.7265778,5.554207095367431,8.2474213,6.033364095367432Q7.7682633,6.512521295367431,7.0906324,6.512521295367431ZM11.968212,6.6519994953674315Q11.84861,5.857425195367432,11.316791,5.254206395367431C11.22112,5.1457442953674315,11.086281,5.079729795367432,10.941936,5.070684895367432C10.930583,5.069973495367432,10.91921,5.069617495367432,10.907835,5.069617495367432C10.901666,5.069617495367432,10.895497,5.069721895367431,10.889333,5.069931495367431C10.762933,5.074222595367432,10.641955,5.122314895367431,10.547109,5.205976295367432C10.429749,5.309494295367432,10.362519,5.458442695367431,10.362519,5.614932495367432C10.362519,5.622363095367431,10.362671,5.629793595367431,10.362974,5.6372191953674315C10.36809,5.762286395367432,10.416076,5.881786595367432,10.498878,5.975658895367431Q10.817939,6.337378995367431,10.889729,6.814333895367431Q10.961522,7.291290295367432,10.763081,7.730905095367431Q10.564638,8.170520295367432,10.159442,8.432164195367431Q9.7542458,8.693808095367432,9.2719173,8.693781895367431L4.9093676,8.693781895367431Q4.2317367,8.693781895367431,3.7525792,8.214624895367432Q3.273422,7.735467395367432,3.273422,7.0578364953674315Q3.273422,6.380205595367432,3.7525792,5.9010483953674315Q4.2317367,5.4218909953674315,4.9093676,5.4218909953674315L7.6359429,5.4218909953674315C7.9371123,5.4218909953674315,8.1812582,5.177745095367431,8.1812582,4.876575995367432C8.1812582,4.575406595367431,7.9371123,4.3312606953674315,7.6359429,4.3312606953674315L4.9093676,4.3312606953674315Q4.3550091,4.3312606953674315,3.847894,4.545752295367432Q3.3584914,4.752752095367432,2.9813871,5.1298560953674315Q2.6042831,5.506960195367432,2.3972833,5.996362695367432Q2.1827917,6.503478095367432,2.1827917,7.0578364953674315Q2.1827917,7.612194495367431,2.3972833,8.119309895367433Q2.6042831,8.608712695367432,2.9813871,8.98581649536743Q3.3584914,9.362920795367431,3.8478935,9.56992049536743Q4.3550091,9.78441189536743,4.9093676,9.78441189536743L9.2718592,9.78441189536743Q10.075739,9.784455795367432,10.751065,9.348382995367432Q11.426391,8.912310095367431,11.757129,8.17961839536743Q12.087866,7.446924695367431,11.968212,6.6519994953674315Z" fill-rule="evenodd" fill="#6B6B6B" fill-opacity="1"/></g></svg>