<svg xmlns="http://www.w3.org/2000/svg" xmlns:xlink="http://www.w3.org/1999/xlink" fill="none" version="1.1" width="822" height="220" viewBox="0 0 822 220"><path d="M0,212C0,216.41827,3.5817223,220,8.0000029,220L814,220C818.41827,220,822,216.41827,822,212L822,8.000001C822,3.5817223,818.41827,0,814,0L8.000001,0C3.5817223,0,0,3.5817223,0,8.0000038L0,212Z" fill="#F5F6F7" fill-opacity="1"/><path d="M0,212C0,216.41827,3.5817223,220,8.0000029,220L814,220C818.41827,220,822,216.41827,822,212L822,8.000001C822,3.5817223,818.41827,0,814,0L8.000001,0C3.5817223,0,0,3.5817223,0,8.0000038L0,212ZM1,212Q1,214.89951,3.0502529,216.94975Q5.1005054,219,8.0000029,219L814,219Q816.8996,219,818.94983,216.94975Q821,214.89954,821,212L821,8.0000019Q821,5.1004667,818.94983,3.0502524Q816.8996,1.0000002,814,1L8.0000019,1Q5.1005054,1,3.0502529,3.0502529Q1,5.1005063,1,8.0000038L1,212Z" fill-rule="evenodd" fill="#ECEEF2" fill-opacity="1"/></svg>