<svg xmlns="http://www.w3.org/2000/svg" xmlns:xlink="http://www.w3.org/1999/xlink" fill="none" version="1.1" width="16" height="16" viewBox="0 0 16 16"><defs><clipPath id="master_svg0_1072_15097"><rect x="0" y="0" width="16" height="16" rx="0"/></clipPath></defs><g clip-path="url(#master_svg0_1072_15097)"><path d="M8.35313036484375,13.0983505734375C5.62963986484375,13.0983514734375,3.42181396484375,10.8905257734375,3.42181396484375,8.167034673437499C3.42181396484375,5.4435436734375,5.62963986484375,3.2357177734375,8.353130864843749,3.2357177734375C11.07662196484375,3.2357177734375,13.28444766484375,5.4435431734375,13.28444676484375,8.167033673437501C13.28173826484375,10.8894014734375,11.07549906484375,13.0956420734375,8.35313036484375,13.0983505734375ZM8.35313036484375,4.6125157734375C6.3894812648437505,4.6125157734375,4.79762966484375,6.2043676734375,4.79762966484375,8.1680168734375C4.79762966484375,10.1316656734375,6.3894812648437505,11.7235173734375,8.35313036484375,11.7235173734375C10.316779564843749,11.7235173734375,11.90863136484375,10.1316656734375,11.90863136484375,8.1680168734375C11.90646456484375,6.2052659734375,10.315880764843751,4.6146822734375,8.35313036484375,4.6125157734375Z" fill="#1F1F1F" fill-opacity="1"/><path d="M12.504177269374999,4.4464438140624996C12.225466309375,4.4480622140624995,11.973321529375,4.2813442140625,11.865664061375,4.0242588140625C11.758006595375,3.7671734140625,11.816115722575,3.4705340140625003,12.012814919375,3.2730694140625003L12.810788569375,2.4701826540625C13.078631559375,2.2007104460625,13.514212559375,2.1993905600625,13.783685059375,2.4672346540625C14.053158059375,2.7350789040625,14.054478659375,3.1706603140625003,13.786634459375,3.4401330140625L12.995540759375,4.2430197140625C12.865646959375,4.3739560140625,12.688613239375,4.4472475140625,12.504177269374999,4.4464438140624996Z" fill="#1F1F1F" fill-opacity="1"/><path d="M2.80764371625,13.7666441984375C2.52893200625,13.7682616984375,2.27678817625,13.6015442984375,2.16913116725,13.344460498437499C2.06147415525,13.0873741984375,2.11958251945,12.7907348984375,2.31628095625,12.5932702384375L2.9806033362499997,11.9250170784375C3.24844725625,11.6555444374375,3.6840289562499997,11.6542248504375,3.95350155625,11.9220690984375C4.22297405625,12.1899133284375,4.22429445625,12.6254955484375,3.95644975625,12.8949669984375L3.29212735625,13.5632202984375C3.16391285625,13.6924657984375,2.98969358625,13.7656163984375,2.80764371625,13.7666441984375Z" fill="#1F1F1F" fill-opacity="1"/><path d="M8.058360580859375,15.5660619359375C7.678439940859375,15.5660619359375,7.370452880859375,15.2580750359375,7.370452880859375,14.878154235937501L7.370452880859375,14.0801806459375C7.370823974609375,13.7005224559375,7.678702380859375,13.3929443359375,8.058361230859376,13.3929443359375C8.438019980859375,13.3929443359375,8.745897780859375,13.7005224559375,8.746268280859375,14.0801806459375L8.746268280859375,14.878154235937501C8.746268280859375,15.2580750359375,8.438281180859375,15.5660619359375,8.058360580859375,15.5660619359375Z" fill="#1F1F1F" fill-opacity="1"/><path d="M15.318727803515625,8.51985836875L14.249522683515625,8.51985836875C13.869339583515625,8.52022946875,13.560943603515625,8.21213376875,13.560943603515625,7.83195066875C13.560943603515625,7.45176696875,13.869339583515625,7.143671875,14.249522683515625,7.14404296875L15.318727803515625,7.14404296875C15.698386203515625,7.1444140625,16.005964303515626,7.45229187875,16.005964303515626,7.83195066875C16.005964303515626,8.21160946875,15.698386203515625,8.51948726875,15.318727803515625,8.51985836875Z" fill="#1F1F1F" fill-opacity="1"/><path d="M13.640252616015625,13.7666075609375C13.457803916015624,13.7666211609375,13.282822216015624,13.6941540609375,13.153803716015625,13.5651487609375L12.352882056015625,12.7642272609375C12.084577642015624,12.495507840937499,12.084746100015625,12.0602160409375,12.353258046015625,11.7917040909375C12.621771186015625,11.5231921449375,13.057061796015624,11.5230249019375,13.325780016015624,11.7913293409375L14.126701616015625,12.5922509609375C14.323463216015625,12.7889916609375,14.382326616015625,13.0848899609375,14.275843416015626,13.3419567609375C14.169360416015625,13.599023360937501,13.918500916015624,13.7666270609375,13.640252616015625,13.7666075609375Z" fill="#1F1F1F" fill-opacity="1"/><path d="M2.46665474765625,8.8559185390625L1.4741018976562499,8.8559185390625C1.09418076765625,8.8559185390625,0.78619384765625,8.5479315390625,0.78619384765625,8.1680102390625C0.78619384765625,7.7880895990625,1.09418076765625,7.4801025390625,1.4741018976562499,7.4801025390625L2.46665474765625,7.4801025390625C2.84631344765625,7.4804736328125,3.15389084765625,7.7883520390625,3.15389084765625,8.1680108890625C3.15389084765625,8.5476696390625,2.84631324765625,8.8555474390625,2.46665474765625,8.8559185390625Z" fill="#1F1F1F" fill-opacity="1"/><path d="M3.93089045625,4.3088867828125C3.7484408562500002,4.3088996828125,3.5734591462500003,4.2364324828125,3.44444149625,4.1074279828125L2.77815368625,3.4372090828125C2.50949538525,3.1685507928125,2.50949554125,2.7329694328125,2.77815401625,2.4643110528125C3.04681244625,2.1956527758125,3.48239356625,2.1956527758125,3.75105205625,2.4643110528125L4.41733995625,3.1305987228125C4.614101156249999,3.3273400828125,4.67296485625,3.6232390828125,4.56648145625,3.8803058828125003C4.45999755625,4.1373723828125,4.20913885625,4.3049757828125,3.93089045625,4.3049556828124995L3.93089045625,4.3088867828125Z" fill="#1F1F1F" fill-opacity="1"/><path d="M8.058360580859375,2.7915852203125C7.678439320859375,2.7915849203125,7.370452880859375,2.4835985203125,7.370452880859375,2.1036776203125003L7.370452880859375,1.1209518903125C7.370823974609375,0.7412932803125001,7.678702380859375,0.433715858459472,8.058361230859376,0.433715858459472C8.438019980859375,0.433715858459472,8.745897780859375,0.7412934903125,8.746268280859375,1.1209518903125L8.746268280859375,2.1036771203124998C8.746268280859375,2.4835985203125,8.438281180859375,2.7915852203125,8.058360580859375,2.7915852203125Z" fill="#1F1F1F" fill-opacity="1"/></g></svg>